<svg xmlns="http://www.w3.org/2000/svg" width="1100" height="620" viewBox="0 0 1100 620">
<style>.title{font:700 30px system-ui;fill:#0f172a}.value{font:700 22px system-ui;fill:#0f172a}.label{font:600 18px system-ui;fill:#334155}.note{font:500 18px system-ui;fill:#475569}</style>
<rect width="100%" height="100%" fill="#ffffff"/><text x="50" y="48" class="title">Scaled proxy: balanced accuracy and coordination deltas</text>
<line x1="55" y1="500" x2="790" y2="500" stroke="#94a3b8" stroke-width="2"/><rect x="90" y="111.8" width="160" height="388.2" rx="10" fill="#94a3b8"/><text x="170" y="97.8" text-anchor="middle" class="value">0.970</text><text x="170" y="535" text-anchor="middle" class="label">No feedback</text><rect x="345" y="111.5" width="160" height="388.5" rx="10" fill="#2563eb"/><text x="425" y="97.5" text-anchor="middle" class="value">0.971</text><text x="425" y="535" text-anchor="middle" class="label">Iterative single</text><rect x="600" y="111.9" width="160" height="388.1" rx="10" fill="#d97706"/><text x="680" y="97.9" text-anchor="middle" class="value">0.970</text><text x="680" y="535" text-anchor="middle" class="label">Fixed-role multi</text>
<text x="835" y="120" class="title">Multi − single</text><line x1="825" y1="300" x2="1050" y2="300" stroke="#64748b" stroke-width="2"/><circle cx="850" cy="300.0" r="10" fill="#64748b" opacity="0.85"/><circle cx="915" cy="300.0" r="10" fill="#64748b" opacity="0.85"/><circle cx="980" cy="300.0" r="10" fill="#64748b" opacity="0.85"/><circle cx="850" cy="316.1" r="10" fill="#dc2626" opacity="0.85"/><circle cx="915" cy="300.0" r="10" fill="#64748b" opacity="0.85"/><circle cx="980" cy="300.0" r="10" fill="#64748b" opacity="0.85"/><circle cx="850" cy="300.0" r="10" fill="#64748b" opacity="0.85"/><circle cx="915" cy="300.0" r="10" fill="#64748b" opacity="0.85"/><circle cx="980" cy="300.0" r="10" fill="#64748b" opacity="0.85"/>
<text x="835" y="480" class="note">helps 0 · hurts 1 · ties 8</text>
<text x="55" y="585" class="note">Iteration gain +0.0008; coordination mean -0.0011. Qwen2.5-Coder-1.5B, 3 tasks × 3 seeds.</text>
</svg>